<svg xmlns="http://www.w3.org/2000/svg" viewBox="110 110 800 800">
 <circle
    cx="510"
    cy="510"
    r="300"
    fill="#F3E8D5"
  />
 <g transform="translate(0,1024) scale(0.1,-0.1)" fill="#214B36" stroke="none">
          <path d="M4825 9093 c-247 -21 -477 -59 -694 -113 -1244 -313 -2237 -1190
-2694 -2380 -100 -260 -182 -583 -223 -880 -21 -154 -30 -663 -15 -837 61
-685 282 -1317 652 -1863 618 -911 1569 -1528 2629 -1705 246 -41 361 -49 660
-49 303 0 433 11 696 60 1390 255 2583 1294 3033 2642 232 693 262 1501 81
2207 -70 275 -147 483 -273 739 -258 527 -611 966 -1068 1332 -592 473 -1322
764 -2103 839 -143 13 -561 19 -681 8z m108 -963 c33 -26 43 -57 66 -220 28
-185 40 -319 50 -520 4 -93 9 -172 12 -174 2 -2 71 -16 153 -31 376 -66 583
-177 739 -397 25 -35 73 -120 106 -190 55 -115 65 -128 109 -157 69 -44 226
-108 562 -228 162 -57 314 -113 337 -123 81 -35 94 -94 49 -220 -134 -372
-372 -607 -680 -671 -113 -23 -316 -25 -501 -4 -323 36 -442 9 -586 -134 -57
-57 -85 -95 -112 -151 -123 -257 -122 -607 2 -866 44 -93 138 -200 236 -269
59 -42 195 -115 214 -115 5 0 65 73 132 163 416 551 671 766 1010 847 214 51
438 -2 579 -136 103 -98 150 -225 150 -399 -1 -160 -49 -270 -184 -413 -157
-166 -391 -280 -685 -334 -97 -18 -155 -22 -356 -22 -250 0 -342 9 -503 54
l-66 19 -35 -42 c-19 -23 -87 -95 -150 -160 -185 -190 -374 -333 -561 -427
-168 -84 -251 -100 -295 -55 -30 30 -34 92 -7 123 9 12 64 39 122 62 203 79
368 195 578 407 78 79 142 147 142 151 0 4 -21 18 -47 31 -91 44 -189 114
-271 195 -141 137 -222 280 -258 457 l-18 86 -115 22 c-606 117 -1079 297
-1622 620 l-35 21 -44 -68 c-70 -106 -225 -294 -382 -462 -213 -228 -238 -250
-288 -250 -59 0 -100 42 -100 100 0 41 4 46 153 193 391 386 590 707 892 1437
207 502 378 794 591 1008 101 101 102 103 113 167 35 202 196 532 375 772 85
113 232 269 286 302 45 27 109 28 143 1z"/>
 
          <path d="M4753 7803 c-131 -153 -216 -285 -309 -478 -112 -231 -141 -385 -108
-570 24 -134 23 -161 -7 -190 -55 -54 -145 -25 -164 53 -3 15 -11 44 -16 66
l-10 38 -26 -23 c-43 -41 -129 -159 -197 -272 -98 -163 -191 -353 -316 -647
-62 -146 -155 -354 -206 -463 -52 -109 -94 -201 -94 -205 0 -11 226 -141 403
-233 296 -152 584 -259 907 -338 186 -45 330 -74 335 -69 2 2 9 50 14 108 28
272 133 517 277 649 62 57 189 123 278 146 92 23 200 28 326 15 237 -24 345
-29 446 -20 231 20 392 115 521 306 l42 61 -29 28 c-47 45 -62 88 -58 162 l3
66 -215 77 c-413 149 -513 197 -576 277 -44 56 -58 81 -88 158 -65 167 -175
295 -313 368 -136 71 -352 128 -573 152 -72 8 -101 22 -127 62 -16 23 -19 63
-24 288 -6 220 -28 467 -43 482 -2 2 -26 -22 -53 -54z m857 -1233 c27 -19 60
-84 60 -117 0 -38 -41 -101 -77 -118 -99 -47 -207 55 -174 164 24 83 123 119
191 71z"/>
          <path d="M6918 4490 c-294 -53 -559 -270 -922 -754 -53 -71 -93 -132 -89 -136
4 -4 53 -16 108 -26 139 -26 446 -26 599 0 152 25 293 68 415 127 89 43 116
63 192 138 115 114 153 188 152 301 -1 119 -24 182 -91 250 -40 40 -74 63
-114 78 -65 24 -182 35 -250 22z"/>
        </g> 
      </svg>




